<svg width="24" height="24" viewBox="0 0 24 24" fill="none" xmlns="http://www.w3.org/2000/svg">
<path d="M18.75 16.5V6.00002C18.7512 5.7042 18.6939 5.41106 18.5813 5.13752C18.4686 4.86397 18.3029 4.61544 18.0938 4.40626C17.8846 4.19708 17.636 4.0314 17.3625 3.91876C17.089 3.80613 16.7958 3.74878 16.5 3.75002H3.75" stroke="#1E1E1E" stroke-width="2" stroke-linecap="round" stroke-linejoin="round"/>
<path d="M9.75 9.75H15.75" stroke="#1E1E1E" stroke-width="2" stroke-linecap="round" stroke-linejoin="round"/>
<path d="M9.75 12.75H15.75" stroke="#1E1E1E" stroke-width="2" stroke-linecap="round" stroke-linejoin="round"/>
<path d="M2.07187 7.50026C1.829 7.22833 1.65585 6.90146 1.56733 6.54777C1.4788 6.19408 1.47756 5.82418 1.56369 5.4699C1.64983 5.11562 1.82077 4.78758 2.0618 4.51402C2.30283 4.24046 2.60673 4.02957 2.94734 3.8995C3.28795 3.76944 3.65507 3.72409 4.01709 3.76737C4.37911 3.81065 4.72519 3.94126 5.02554 4.14795C5.32589 4.35465 5.57151 4.63123 5.74126 4.9539C5.91101 5.27658 5.9998 5.63566 6 6.00026V18.0003C6.00019 18.3649 6.08899 18.724 6.25874 19.0466C6.42849 19.3693 6.67411 19.6459 6.97446 19.8526C7.27481 20.0593 7.62089 20.1899 7.98291 20.2332C8.34493 20.2764 8.71205 20.2311 9.05266 20.101C9.39327 19.971 9.69717 19.7601 9.9382 19.4865C10.1792 19.2129 10.3502 18.8849 10.4363 18.5306C10.5224 18.1763 10.5212 17.8064 10.4327 17.4528C10.3441 17.0991 10.171 16.7722 9.92813 16.5003H20.4281C20.7177 16.8241 20.9074 17.2248 20.9743 17.6541C21.0411 18.0833 20.9823 18.5228 20.8048 18.9193C20.6274 19.3159 20.3389 19.6525 19.9743 19.8887C19.6096 20.1249 19.1844 20.2505 18.75 20.2503H8.25" stroke="#1E1E1E" stroke-width="2" stroke-linecap="round" stroke-linejoin="round"/>
</svg>
