<svg width="33" height="33" viewBox="0 0 33 33" fill="none" xmlns="http://www.w3.org/2000/svg">
<path d="M16.4513 9.59122C15.1658 9.59122 13.909 9.97244 12.8401 10.6867C11.7712 11.4009 10.9381 12.4161 10.4461 13.6038C9.95415 14.7915 9.82543 16.0984 10.0762 17.3593C10.327 18.6202 10.9461 19.7784 11.8551 20.6874C12.7642 21.5965 13.9224 22.2155 15.1832 22.4663C16.4441 22.7171 17.7511 22.5884 18.9388 22.0964C20.1265 21.6045 21.1417 20.7713 21.8559 19.7024C22.5701 18.6335 22.9513 17.3768 22.9513 16.0912C22.9494 14.3679 22.2639 12.7158 21.0453 11.4972C19.8268 10.2787 18.1746 9.5932 16.4513 9.59122ZM16.4513 19.5912C15.7591 19.5912 15.0824 19.3859 14.5068 19.0014C13.9313 18.6168 13.4827 18.0702 13.2178 17.4306C12.9529 16.7911 12.8835 16.0873 13.0186 15.4084C13.1536 14.7295 13.487 14.1058 13.9765 13.6163C14.4659 13.1269 15.0896 12.7935 15.7685 12.6585C16.4475 12.5234 17.1512 12.5927 17.7907 12.8576C18.4303 13.1225 18.9769 13.5711 19.3615 14.1467C19.7461 14.7223 19.9513 15.399 19.9513 16.0912C19.9513 17.0195 19.5826 17.9097 18.9262 18.5661C18.2698 19.2225 17.3796 19.5912 16.4513 19.5912ZM27.9513 16.19V15.9925L29.7013 13.8037C29.8482 13.6203 29.95 13.405 29.9984 13.1751C30.0468 12.9451 30.0406 12.707 29.9801 12.48C29.6643 11.2888 29.1923 10.1448 28.5763 9.07747C28.4577 8.87394 28.2927 8.70123 28.0949 8.57332C27.8971 8.4454 27.6719 8.36589 27.4376 8.34122L24.6526 8.02872L24.5138 7.88997L24.2013 5.10372C24.1765 4.86964 24.0969 4.64471 23.969 4.4471C23.8411 4.24949 23.6685 4.08475 23.4651 3.96622C22.3977 3.34833 21.2532 2.87462 20.0613 2.55747C19.8341 2.49789 19.596 2.49253 19.3663 2.54182C19.1366 2.5911 18.9217 2.69366 18.7388 2.84122L16.5501 4.59122H16.3526L14.1638 2.84122C13.9804 2.69432 13.7651 2.59256 13.5352 2.54414C13.3052 2.49572 13.0671 2.502 12.8401 2.56247C11.6487 2.88023 10.5045 3.35435 9.43759 3.97247C9.23485 4.09051 9.06263 4.25447 8.93477 4.45115C8.8069 4.64784 8.72695 4.87177 8.70134 5.10497L8.38884 7.88997L8.25009 8.02872L5.46384 8.34122C5.22976 8.36608 5.00482 8.44568 4.80722 8.57358C4.60961 8.70149 4.44487 8.8741 4.32634 9.07747C3.71018 10.1451 3.23816 11.2896 2.92259 12.4812C2.86233 12.7081 2.85615 12.9459 2.90457 13.1756C2.95298 13.4053 3.05463 13.6205 3.20134 13.8037L4.95134 15.9925V16.19L3.20134 18.3787C3.05444 18.5621 2.95268 18.7775 2.90426 19.0074C2.85584 19.2373 2.86212 19.4754 2.92259 19.7025C3.24074 20.894 3.71529 22.0381 4.33384 23.105C4.45176 23.3075 4.61552 23.4797 4.81197 23.6075C5.00843 23.7354 5.23211 23.8154 5.46509 23.8412L8.25009 24.1512L8.38884 24.29L8.70134 27.0787C8.7262 27.3128 8.8058 27.5377 8.9337 27.7353C9.06161 27.9329 9.23422 28.0977 9.43759 28.2162C10.505 28.8341 11.6495 29.3078 12.8413 29.625C13.0686 29.6845 13.3067 29.6899 13.5364 29.6406C13.7661 29.5913 13.981 29.4888 14.1638 29.3412L16.3526 27.5912H16.5501L18.7388 29.3412C18.9222 29.4881 19.1376 29.5899 19.3675 29.6383C19.5974 29.6867 19.8355 29.6804 20.0626 29.62C21.2537 29.3042 22.3978 28.8322 23.4651 28.2162C23.6683 28.0985 23.841 27.9346 23.9693 27.7379C24.0976 27.5412 24.178 27.3171 24.2038 27.0837L24.5138 24.2987L24.6526 24.16L27.4388 23.8412C27.6723 23.8153 27.8963 23.735 28.093 23.6067C28.2898 23.4784 28.4536 23.3057 28.5713 23.1025C29.1892 22.0351 29.6629 20.8906 29.9801 19.6987C30.0399 19.4722 30.0459 19.2348 29.9975 19.0056C29.9491 18.7764 29.8477 18.5617 29.7013 18.3787L27.9513 16.19ZM24.9363 15.5787C24.9563 15.9201 24.9563 16.2623 24.9363 16.6037C24.914 16.9748 25.0303 17.341 25.2626 17.6312L26.8676 19.6375C26.7161 20.0859 26.5353 20.524 26.3263 20.9487L23.7726 21.2325C23.4028 21.2747 23.062 21.453 22.8163 21.7325C22.5893 21.9883 22.3472 22.2304 22.0913 22.4575C21.8118 22.7032 21.6336 23.044 21.5913 23.4137L21.3088 25.9662C20.8841 26.176 20.4461 26.3576 19.9976 26.51L17.9913 24.9037C17.7251 24.6913 17.3945 24.5758 17.0538 24.5762C17.0238 24.5762 16.9938 24.5762 16.9638 24.5762C16.6225 24.5962 16.2802 24.5962 15.9388 24.5762C15.568 24.5542 15.2021 24.67 14.9113 24.9012L12.9051 26.5075C12.4566 26.356 12.0186 26.1752 11.5938 25.9662L11.3101 23.4125C11.2678 23.0427 11.0896 22.7019 10.8101 22.4562C10.5543 22.2291 10.3122 21.987 10.0851 21.7312C9.8394 21.4517 9.49857 21.2735 9.12884 21.2312L6.57634 20.9487C6.36655 20.524 6.18491 20.086 6.03259 19.6375L7.63759 17.6312C7.86991 17.341 7.98617 16.9748 7.96384 16.6037C7.94383 16.2623 7.94383 15.9201 7.96384 15.5787C7.98617 15.2076 7.86991 14.8415 7.63759 14.5512L6.03509 12.545C6.18659 12.0965 6.3674 11.6585 6.57634 11.2337L9.13009 10.95C9.49982 10.9077 9.84065 10.7295 10.0863 10.45C10.3134 10.1941 10.5555 9.95204 10.8113 9.72497C11.0909 9.47928 11.2691 9.13846 11.3113 8.76872L11.5938 6.21622C12.0185 6.00643 12.4566 5.82479 12.9051 5.67247L14.9113 7.27872C15.2021 7.50995 15.568 7.62569 15.9388 7.60372C16.2802 7.58372 16.6225 7.58372 16.9638 7.60372C17.3348 7.62641 17.7009 7.51059 17.9913 7.27872L19.9976 5.67247C20.4461 5.82479 20.8841 6.00643 21.3088 6.21622L21.5926 8.76997C21.6349 9.13971 21.8131 9.48053 22.0926 9.72622C22.3484 9.95329 22.5905 10.1954 22.8176 10.4512C23.0633 10.7307 23.4041 10.9089 23.7738 10.9512L26.3263 11.2337C26.5361 11.6584 26.7178 12.0964 26.8701 12.545L25.2651 14.5512C25.0319 14.8411 24.9147 15.2073 24.9363 15.5787Z" fill="black"/>
</svg>
