<svg width="91" height="93" viewBox="0 0 91 93" fill="none" xmlns="http://www.w3.org/2000/svg">
<path d="M71.8577 39.5721C71.929 34.5734 70.6559 29.6474 68.1716 25.3092C65.6872 20.971 62.083 17.3799 57.7356 14.9116C53.3883 12.4433 48.4577 11.1883 43.4593 11.2779C38.4609 11.3676 33.5784 12.7986 29.3224 15.4212C25.0664 18.0439 21.5932 21.7618 19.2661 26.1864C16.939 30.6109 15.8433 35.5794 16.0938 40.5723C16.3443 45.5652 17.9317 50.3991 20.6899 54.5685C23.4482 58.7379 27.276 62.0896 31.7732 64.2731L31.6838 71.3062L56.1145 71.626C56.1145 71.626 56.316 67.6829 56.4261 64.1522C61.0056 61.8649 64.8676 58.3619 67.5894 54.0265C70.3112 49.6912 71.7878 44.6906 71.8577 39.5721Z" fill="#58D7FF"/>
<path d="M42.2744 72.3508C42.3475 62.7943 43.0563 53.2521 42.9386 43.6946C42.9186 41.7995 42.8625 39.8982 42.6789 38.0069C42.4021 35.3491 41.7691 32.4654 39.235 31.0635C36.7008 29.6616 34.2888 31.0812 33.1143 33.4086C32.0427 35.7051 31.6892 38.2717 32.1001 40.7725C32.4294 43.2168 33.4203 45.5246 34.9658 47.4467C36.5113 49.3688 38.5526 50.8321 40.8692 51.6784C43.2116 52.5153 45.7369 52.7023 48.177 52.2196C50.6171 51.7369 52.881 50.6025 54.7283 48.9368C58.2686 45.6103 60.1459 40.0106 58.6281 35.2751C58.0006 33.3381 56.5454 31.2599 54.4138 30.8514C51.6692 30.3256 49.8596 32.662 49.1136 34.9904C48.3676 37.3188 48.1628 40.092 47.9256 42.6265C47.6559 45.3976 47.4729 48.1793 47.3207 50.9711C47.0026 56.6594 46.8216 62.3626 46.4981 68.0546C46.4271 69.3559 46.3452 70.6568 46.2525 71.9574C46.1788 72.9833 47.7677 73.2728 47.8484 72.2341C48.571 62.2704 48.5903 52.2525 49.5851 42.3041C49.8144 40.0524 49.9464 37.6391 50.6584 35.4771C51.0218 34.3671 51.6292 33.0626 52.7848 32.5862C53.2193 32.4238 53.6901 32.3843 54.1456 32.472C54.601 32.5597 55.0235 32.7712 55.3667 33.0833C56.9812 34.4163 57.486 36.653 57.5155 38.6522C57.5226 40.9389 56.9028 43.1838 55.7234 45.1429C54.5557 47.0649 52.8683 48.6175 50.8559 49.6216C48.8436 50.6257 46.5883 51.0404 44.3505 50.8177C42.1126 50.5951 39.9833 49.7442 38.2082 48.3633C36.4332 46.9823 35.0848 45.1276 34.3186 43.0132C33.5475 40.9062 33.3659 38.6287 33.7936 36.4262C34.209 34.361 35.6214 31.1857 38.2534 32.3766C40.5892 33.45 40.9102 36.3858 41.0721 38.6646C41.2158 40.3858 41.2623 42.1038 41.2838 43.8314C41.3924 52.5161 40.8403 61.1961 40.6607 69.8766C40.6428 70.7446 40.6248 71.6127 40.6196 72.4876C40.6129 73.53 42.2315 73.3868 42.2366 72.3534L42.2744 72.3508Z" fill="white"/>
<path d="M34.5978 63.4093C34.4872 63.3786 34.3787 63.3408 34.273 63.2962C34.0641 63.2127 33.7483 63.1011 33.3554 62.9247C32.2435 62.4336 31.1686 61.8626 30.1392 61.2162C24.8066 57.9293 20.8543 52.8117 19.0222 46.8214C18.4887 45.1079 18.1346 43.3436 17.9658 41.5569C17.847 40.3553 17.8188 39.1465 17.8813 37.9407C17.8967 37.5101 17.9413 37.1779 17.9736 36.9413C17.98 36.828 17.9937 36.7153 18.0145 36.6038C18.0241 36.7183 18.0225 36.8335 18.0098 36.9477C18.0077 37.1709 17.9775 37.5011 17.9764 37.9295C17.8492 41.616 18.5011 45.2878 19.8894 48.7053C21.2777 52.1227 23.3713 55.2088 26.0335 57.7621C27.3149 59.0039 28.7196 60.1117 30.2259 61.0684C31.2406 61.7194 32.2972 62.3026 33.3889 62.8141C33.7695 63.007 34.08 63.1224 34.282 63.2185C34.3933 63.2715 34.4991 63.3354 34.5978 63.4093Z" fill="#263238"/>
<path d="M19.2852 31.3598C19.2606 31.8431 19.1716 32.321 19.0207 32.7807C18.9304 33.2574 18.7737 33.7191 18.5552 34.1523C18.5825 33.6693 18.6714 33.1918 18.8198 32.7313C18.9135 32.2556 19.07 31.7944 19.2852 31.3598Z" fill="#263238"/>
<path d="M68.6892 46.0104C68.6939 45.9107 68.7098 45.812 68.7365 45.7159L68.9102 44.8893C68.9511 44.7101 69.0005 44.5092 69.044 44.2886C69.0876 44.068 69.1163 43.8261 69.1518 43.5715C69.2582 42.9945 69.3344 42.4123 69.3802 41.8274L69.4576 40.8068C69.4836 40.4479 69.4661 40.0721 69.4681 39.6905C69.4973 38.9176 69.4466 38.1213 69.3758 37.2283C69.0348 33.4629 67.9056 29.8114 66.0616 26.5108C65.6145 25.7704 65.2109 25.047 64.7521 24.4256C64.5325 24.1121 64.3166 23.8038 64.112 23.5114C63.9073 23.2191 63.6675 22.9672 63.4617 22.7073C63.0953 22.2447 62.7054 21.8012 62.2937 21.3785C62.1129 21.1883 61.954 21.0065 61.7955 20.8481C61.6371 20.6897 61.4883 20.5563 61.3522 20.4298C61.0927 20.1837 60.879 19.969 60.7339 19.8409C60.6612 19.7743 60.5928 19.7031 60.5292 19.6278C60.6131 19.6813 60.6911 19.7435 60.762 19.8133C60.9236 19.9536 61.1384 20.1359 61.4048 20.3692C61.5409 20.4957 61.6988 20.6307 61.8641 20.7763C62.0294 20.922 62.1921 21.109 62.3729 21.2993C62.7967 21.7179 63.198 22.1588 63.5749 22.6201C63.761 22.8858 63.9896 23.1218 64.2305 23.4205C64.4713 23.7192 64.651 24.0211 64.8743 24.3401C65.3209 24.9779 65.7548 25.688 66.2057 26.4337C68.0905 29.7445 69.2284 33.4275 69.5395 37.2245C69.5864 38.0947 69.6541 38.9266 69.6196 39.7032C69.6069 40.0923 69.6304 40.4878 69.6054 40.8142L69.5317 41.8401C69.4805 42.4305 69.3972 43.0177 69.2821 43.5991C69.2359 43.8612 69.2072 44.103 69.1546 44.322L69.0027 44.9195L68.7875 45.7435C68.761 45.8346 68.7282 45.9238 68.6892 46.0104Z" fill="#263238"/>
<g opacity="0.2">
<path d="M43.1586 19.1717C42.6907 17.9943 41.409 17.1254 39.8769 16.6456C37.6748 15.9899 35.303 16.2278 33.275 17.3078C27.2629 20.3848 23.8119 24.1556 21.6452 30.8691C20.9124 33.1485 20.5127 36.9216 21.6011 39.1774C21.862 39.7442 22.2368 40.2511 22.7021 40.6666C23.1675 41.0821 23.7135 41.3973 24.3061 41.5925C27.4531 42.5574 29.9829 39.5186 30.9946 36.6081C31.9372 33.9045 32.3025 30.8288 34.2653 28.7336C35.8836 27.0063 38.274 26.291 40.2794 25.0373C42.2848 23.7836 44.0333 21.3712 43.1586 19.1717Z" fill="white"/>
</g>
<g opacity="0.2">
<path d="M54.3467 18.2288C53.3497 16.4317 50.7742 15.6607 49.2609 16.3164C48.6383 16.6083 48.0901 17.0378 47.6577 17.5725C47.2253 18.1072 46.9199 18.7331 46.7646 19.403C46.6008 20.2152 46.6834 21.0579 47.0017 21.8229C47.32 22.5879 47.8596 23.2404 48.5512 23.6967C49.2579 24.1325 50.0854 24.3311 50.9129 24.2632C51.7404 24.1954 52.5245 23.8648 53.1508 23.3197C54.3674 22.2065 55.1527 19.708 54.3467 18.2288Z" fill="white"/>
</g>
<path d="M38.3096 85.5634C38.8998 85.9634 39.4298 86.4459 39.8832 86.9962C40.0359 87.2008 40.2339 87.3673 40.4617 87.4827C40.6895 87.598 40.9409 87.659 41.1963 87.661L46.1101 87.7215C46.3816 87.724 46.6496 87.6607 46.8913 87.537C47.133 87.4133 47.3411 87.2328 47.4979 87.0111C47.8916 86.3934 48.4925 85.9362 49.1929 85.7213L38.3096 85.5634Z" fill="#455A64"/>
<path d="M33.155 71.8128C33.1518 71.9101 34.199 79.6049 34.6028 82.546C34.6724 83.1434 34.8895 83.7141 35.2344 84.2068C35.5794 84.6994 36.0415 85.0986 36.5791 85.3683C37.0155 85.5717 37.4894 85.6822 37.9707 85.6929L48.7238 85.8232C48.7238 85.8232 51.5363 85.8579 52.1983 83.6359C52.8603 81.4139 54.2815 72.0858 54.2815 72.0858L33.155 71.8128Z" fill="#263238"/>
<path d="M33.6713 81.8498L33.6708 81.9082C33.6681 82.202 33.9042 82.4424 34.1981 82.445L52.9363 82.6118C53.2301 82.6144 53.4705 82.3783 53.4731 82.0845L53.4736 82.0261C53.4762 81.7322 53.2401 81.4919 52.9463 81.4893L34.208 81.3225C33.9142 81.3199 33.6739 81.556 33.6713 81.8498Z" fill="#E0E0E0"/>
<path d="M52.921 82.5978C53.0559 82.5844 53.1825 82.5264 53.2808 82.433C53.3382 82.3754 53.3814 82.3054 53.4072 82.2282C53.4329 82.1511 53.4404 82.0691 53.429 81.9886C53.423 81.8796 53.3819 81.7755 53.3119 81.6918C53.2418 81.6081 53.1466 81.5492 53.0404 81.5241C52.0246 81.4987 50.5165 81.517 48.6693 81.5034L34.1927 81.406C34.1182 81.4037 34.0444 81.4209 33.9786 81.4559C33.9128 81.4909 33.8572 81.5424 33.8174 81.6054C33.776 81.6651 33.7509 81.7345 33.7446 81.8069C33.7366 81.8827 33.742 81.9594 33.7606 82.0333C33.7816 82.1026 33.8193 82.1656 33.8704 82.2169C33.9215 82.2681 33.9844 82.306 34.0536 82.3272C34.2139 82.3515 34.3763 82.3599 34.5383 82.3522L36.571 82.3705L40.4169 82.4104L46.9206 82.4902L51.322 82.5768L52.5143 82.6053L52.8205 82.6127L52.9305 82.6228L52.8263 82.6324L52.5133 82.6378L51.3385 82.6682L46.9217 82.6162L40.4154 82.5778L36.5732 82.5432L34.5442 82.5302L34.2885 82.5271C34.1931 82.531 34.0975 82.5204 34.0052 82.4958C33.9066 82.4674 33.817 82.4141 33.745 82.341C33.6731 82.2679 33.6211 82.1775 33.5942 82.0785C33.5673 81.9834 33.5595 81.8838 33.5713 81.7856C33.5803 81.6825 33.6138 81.583 33.6691 81.4954C33.7288 81.4107 33.808 81.3416 33.8999 81.2938C33.9918 81.2459 34.0938 81.2208 34.1975 81.2205L48.672 81.3828C50.5303 81.4123 52.0155 81.4179 53.068 81.473C53.1872 81.5038 53.2932 81.5722 53.3703 81.668C53.4474 81.7639 53.4915 81.8821 53.496 82.0051C53.5042 82.092 53.4926 82.1796 53.462 82.2614C53.4315 82.3431 53.3828 82.4169 53.3196 82.4771C53.2679 82.528 53.2046 82.5656 53.1352 82.5867C53.0657 82.6077 52.9922 82.6115 52.921 82.5978Z" fill="#263238"/>
<path d="M33.3085 79.4263L33.308 79.4847C33.3053 79.7786 33.5414 80.0189 33.8353 80.0215L53.3651 80.1954C53.659 80.198 53.8993 79.9619 53.9019 79.6681L53.9024 79.6097C53.905 79.3158 53.6689 79.0755 53.3751 79.0729L33.8453 78.899C33.5514 78.8964 33.3111 79.1325 33.3085 79.4263Z" fill="#E0E0E0"/>
<path d="M53.3469 80.1835C53.4881 80.1675 53.6201 80.1057 53.7227 80.0075C53.7773 79.9441 53.8175 79.8697 53.8406 79.7893C53.8636 79.7089 53.8689 79.6245 53.8561 79.5418C53.8424 79.4291 53.7911 79.3242 53.7106 79.2441C53.6301 79.164 53.525 79.1133 53.4121 79.1001L48.8779 79.1066L33.8357 78.9934C33.7606 78.9948 33.6871 79.0145 33.6214 79.0508C33.5557 79.0872 33.4999 79.139 33.4588 79.2018C33.4186 79.2672 33.3972 79.3424 33.3972 79.4192C33.3884 79.4961 33.3969 79.5741 33.4222 79.6473C33.4471 79.7186 33.4908 79.782 33.5486 79.8307C33.6064 79.8794 33.6762 79.9117 33.7507 79.9241C33.9006 79.9459 34.0984 79.9342 34.2696 79.9411L36.3815 79.9594L40.3714 80.0014L47.1308 80.0844C49.0465 80.1054 50.6024 80.1328 51.6847 80.1513L52.9238 80.1787L53.248 80.1893L53.3581 80.1994L53.2449 80.2074L52.9265 80.2165L51.6863 80.2214L47.1468 80.2316L40.3959 80.206L36.4134 80.1747L34.3015 80.1564C34.1175 80.1614 33.9335 80.1554 33.7502 80.1384C33.6468 80.1171 33.5501 80.0708 33.4686 80.0037C33.387 79.9365 33.3231 79.8505 33.2824 79.753C33.2489 79.655 33.2356 79.5513 33.243 79.4479C33.2457 79.3394 33.2788 79.2339 33.3387 79.1433C33.394 79.0509 33.4728 78.9747 33.5671 78.9226C33.6614 78.8705 33.7678 78.8443 33.8755 78.8467L48.9045 79.0088C50.8293 79.0314 52.3777 79.0482 53.4674 79.0773C53.5936 79.0951 53.7101 79.1552 53.7978 79.2476C53.8856 79.3401 53.9394 79.4595 53.9507 79.5864C53.9631 79.6755 53.955 79.7663 53.927 79.8518C53.8991 79.9373 53.8519 80.0153 53.7892 80.0798C53.73 80.1327 53.6586 80.17 53.5813 80.1881C53.504 80.2062 53.4234 80.2046 53.3469 80.1835Z" fill="#263238"/>
<path d="M53.6475 77.7966L33.5915 77.582C33.5212 77.5816 33.4516 77.5673 33.3869 77.5398C33.3221 77.5124 33.2635 77.4724 33.2143 77.4221C33.1651 77.3718 33.1263 77.3123 33.1003 77.247C33.0743 77.1816 33.0614 77.1118 33.0625 77.0415L33.0631 76.9857C33.0631 76.9158 33.077 76.8467 33.1041 76.7824C33.1311 76.718 33.1707 76.6597 33.2205 76.6108C33.2703 76.5619 33.3294 76.5234 33.3942 76.4976C33.4591 76.4718 33.5285 76.4591 33.5983 76.4604L53.6335 76.6341C53.774 76.6359 53.908 76.6932 54.0064 76.7934C54.1049 76.8937 54.1596 77.0288 54.1588 77.1693L54.162 77.2304C54.1657 77.3015 54.1553 77.3725 54.1314 77.4395C54.1075 77.5065 54.0706 77.5681 54.0227 77.6208C53.9749 77.6734 53.9171 77.716 53.8527 77.7462C53.7883 77.7764 53.7185 77.7935 53.6475 77.7966Z" fill="#E0E0E0"/>
<path d="M53.6471 77.7963C53.7269 77.7929 53.805 77.772 53.8759 77.7352C53.9467 77.6983 54.0086 77.6463 54.0571 77.5828C54.1057 77.5194 54.1396 77.446 54.1567 77.368C54.1737 77.2899 54.1734 77.2091 54.1558 77.1312C54.1412 77.0097 54.0831 76.8975 53.9922 76.8155C53.9013 76.7335 53.7837 76.6873 53.6613 76.6853L49.0006 76.6695C45.033 76.6594 39.6153 76.6033 33.6075 76.5642C33.5294 76.5626 33.4524 76.5824 33.3848 76.6214C33.3172 76.6603 33.2615 76.7171 33.2237 76.7854C33.1859 76.8519 33.1648 76.9265 33.1621 77.0028C33.1542 77.0831 33.1672 77.164 33.1999 77.2378C33.23 77.3096 33.2785 77.3721 33.3406 77.4191C33.4027 77.466 33.4761 77.4957 33.5534 77.5051L34.0935 77.5072L36.2559 77.5297L40.3431 77.5749L47.2572 77.6526L51.9227 77.7205L53.1889 77.7527L53.5222 77.7649L53.6322 77.775L53.519 77.783L53.1916 77.7905L51.919 77.7944L47.2583 77.7785L40.3415 77.7423L36.2527 77.7062L34.0887 77.6927C33.9032 77.6879 33.7342 77.6954 33.5306 77.6874C33.4231 77.6721 33.3211 77.63 33.234 77.565C33.147 77.5 33.0777 77.4142 33.0324 77.3154C32.9939 77.2161 32.9761 77.1099 32.9803 77.0034C32.9831 76.8945 33.0115 76.7878 33.0632 76.6919C33.1204 76.5928 33.2028 76.5106 33.302 76.4537C33.4013 76.3967 33.5138 76.367 33.6282 76.3676L49.0011 76.5344L53.6704 76.6077C53.8001 76.614 53.9235 76.666 54.0187 76.7543C54.1139 76.8427 54.1749 76.9619 54.1908 77.0908C54.2086 77.1821 54.2046 77.2762 54.1791 77.3657C54.1537 77.4551 54.1074 77.5372 54.0442 77.6054C53.998 77.6666 53.9379 77.7158 53.8688 77.7491C53.7998 77.7823 53.7237 77.7984 53.6471 77.7963Z" fill="#263238"/>
<path d="M32.7128 74.5847L32.7123 74.6431C32.7096 74.937 32.9457 75.1773 33.2396 75.1799L54.0865 75.3655C54.3804 75.3681 54.6207 75.132 54.6233 74.8382L54.6238 74.7798C54.6264 74.4859 54.3904 74.2456 54.0965 74.243L33.2496 74.0574C32.9557 74.0548 32.7154 74.2909 32.7128 74.5847Z" fill="#E0E0E0"/>
<path d="M54.0676 75.3553C54.1418 75.3503 54.2142 75.3308 54.2808 75.2977C54.3474 75.2647 54.4068 75.2189 54.4556 75.1628C54.5111 75.0911 54.5496 75.0079 54.5685 74.9193C54.5873 74.8307 54.586 74.7389 54.5645 74.6509C54.5382 74.528 54.4682 74.4189 54.3675 74.3438C54.2668 74.2686 54.1422 74.2325 54.017 74.2422L49.1781 74.2322L33.2142 74.1149C33.1325 74.1133 33.052 74.1347 32.982 74.1768C32.912 74.2188 32.8552 74.2797 32.8182 74.3525C32.7828 74.4267 32.7644 74.5079 32.7644 74.5901C32.7644 74.6724 32.7828 74.7536 32.8182 74.8278C32.8574 74.8976 32.9143 74.9559 32.9832 74.9967C33.0521 75.0374 33.1305 75.0593 33.2106 75.06L33.7831 75.0631L36.021 75.0803L40.2575 75.1239L47.4416 75.2026L52.2534 75.287L53.5717 75.3144L53.914 75.3282L54.0331 75.3399L53.9108 75.3463L53.5743 75.3522L52.255 75.3571L47.4161 75.3472L40.2506 75.295L36.0125 75.2605C35.2779 75.2521 34.5289 75.2459 33.7693 75.247L33.1984 75.2349C33.0854 75.2367 32.9742 75.2068 32.8774 75.1486C32.7806 75.0903 32.7021 75.0061 32.6508 74.9054C32.599 74.8067 32.5736 74.6963 32.5769 74.5849C32.5709 74.4743 32.5952 74.3643 32.647 74.2664C32.7022 74.1665 32.7829 74.0829 32.8808 74.024C32.9787 73.9652 33.0904 73.9333 33.2046 73.9315L49.168 74.1047L53.9797 74.1891C54.1154 74.1825 54.2489 74.2245 54.3563 74.3074C54.4638 74.3904 54.5382 74.509 54.5661 74.6419C54.5878 74.7352 54.5872 74.8324 54.5643 74.9255C54.5414 75.0186 54.4969 75.105 54.4344 75.1777C54.3554 75.2656 54.25 75.3255 54.1341 75.3484C54.1121 75.3523 54.0899 75.3546 54.0676 75.3553Z" fill="#263238"/>
<path d="M30.5295 65.1443C30.5268 65.3442 30.9118 70.057 31.111 72.4682C31.1455 72.9066 31.2793 73.3314 31.5022 73.7105C31.7251 74.0897 32.0313 74.4131 32.3977 74.6564L33.4906 75.3803L54.2696 75.6432L55.3698 74.952C55.746 74.7146 56.0628 74.3942 56.2959 74.0153C56.5291 73.6365 56.6724 73.2093 56.7149 72.7665L57.423 65.4744L30.5295 65.1443Z" fill="#58D7FF"/>
<g opacity="0.3">
<path d="M34.8867 82.397C36.9218 82.8217 38.9991 83.0098 41.0774 82.9575C42.8507 82.9673 44.5895 83.041 46.5169 83.0221C47.9298 83.015 49.23 82.9601 50.6402 82.9152C51.2011 82.9181 51.7559 82.7998 52.2668 82.5684L34.8867 82.397Z" fill="black"/>
</g>
<g opacity="0.3">
<path d="M34.1689 79.9555C36.3675 80.3804 38.6052 80.5688 40.8439 80.5175C42.7596 80.5385 44.6387 80.6089 46.7102 80.5922C48.2348 80.5861 49.6376 80.5306 51.1541 80.4906C51.7604 80.4996 52.3623 80.3854 52.9231 80.1549L34.1689 79.9555Z" fill="black"/>
</g>
<g opacity="0.3">
<path d="M34.2012 77.5583C36.4001 77.9808 38.6375 78.1692 40.8761 78.1204C42.7881 78.136 44.6672 78.2065 46.7425 78.195C48.2633 78.1836 49.6661 78.1282 51.1826 78.0881C51.7889 78.0971 52.3908 77.983 52.9516 77.7524L34.2012 77.5583Z" fill="black"/>
</g>
<g opacity="0.3">
<path d="M34.228 75.1552C36.428 75.5794 38.6667 75.7695 40.9067 75.7225C42.8187 75.7381 44.6978 75.8086 46.7693 75.7918C48.2938 75.7858 49.6966 75.7303 51.2132 75.6902C51.8195 75.6993 52.4213 75.5851 52.9822 75.3545L34.228 75.1552Z" fill="black"/>
</g>
<g opacity="0.3">
<path d="M30.5285 65.1408C30.5259 65.3407 30.9108 70.0535 31.11 72.4646C31.1445 72.9031 31.2783 73.3279 31.5012 73.707C31.7241 74.0861 32.0303 74.4096 32.3967 74.6529L33.4897 75.3767L54.2686 75.6396L55.3688 74.9484C55.745 74.711 56.0618 74.3906 56.2949 74.0118C56.5281 73.633 56.6714 73.2058 56.7139 72.763L57.422 65.4709L30.5285 65.1408Z" fill="black"/>
</g>
<path d="M56.1931 73.7639C56.2154 73.7958 50.6526 73.77 43.7747 73.6986C36.8968 73.6273 31.3515 73.5021 31.3504 73.4553C31.3493 73.4085 36.8909 73.4492 43.7741 73.5168C50.6574 73.5844 56.1936 73.7081 56.1931 73.7639Z" fill="#263238"/>
<path d="M57.279 65.3349C57.2785 65.3907 51.241 65.3884 43.7996 65.3155C36.3582 65.2427 30.3026 65.158 30.3031 65.1021C30.3036 65.0463 36.3449 65.054 43.7825 65.1215C51.2202 65.1891 57.2742 65.2828 57.279 65.3349Z" fill="#263238"/>
</svg>
