<svg width="239" height="50" viewBox="0 0 239 50" fill="none" xmlns="http://www.w3.org/2000/svg">
<path d="M10.528 14.056V49H0.992V14.056H10.528ZM5.792 0.359997C7.2 0.359997 8.416 0.701331 9.44 1.384C10.464 2.024 10.976 3.24 10.976 5.032C10.976 6.78133 10.464 7.99733 9.44 8.68C8.416 9.36266 7.2 9.704 5.792 9.704C4.34133 9.704 3.104 9.36266 2.08 8.68C1.09867 7.99733 0.608 6.78133 0.608 5.032C0.608 3.24 1.09867 2.024 2.08 1.384C3.104 0.701331 4.34133 0.359997 5.792 0.359997ZM49.804 22.824C49.804 25.4267 49.612 28.0293 49.228 30.632C48.844 33.192 48.1613 35.624 47.18 37.928C46.2413 40.1893 44.8973 42.216 43.148 44.008C41.4413 45.7573 39.244 47.144 36.556 48.168C33.9107 49.1493 30.6893 49.64 26.892 49.64C25.996 49.64 24.9507 49.5973 23.756 49.512C22.5613 49.4693 21.5587 49.3627 20.748 49.192V41.448C21.6013 41.6187 22.4973 41.768 23.436 41.896C24.3747 42.024 25.3133 42.088 26.252 42.088C29.1107 42.088 31.4573 41.7467 33.292 41.064C35.1693 40.3813 36.6413 39.4 37.708 38.12C38.7747 36.84 39.5427 35.3253 40.012 33.576C40.524 31.8267 40.8227 29.9067 40.908 27.816H40.524C39.9267 28.7973 39.2013 29.6933 38.348 30.504C37.5373 31.3147 36.492 31.9547 35.212 32.424C33.9747 32.8933 32.3747 33.128 30.412 33.128C27.8093 33.128 25.548 32.5733 23.628 31.464C21.708 30.312 20.2147 28.6693 19.148 26.536C18.0813 24.36 17.548 21.736 17.548 18.664C17.548 15.336 18.1667 12.4987 19.404 10.152C20.684 7.76266 22.4973 5.94933 24.844 4.712C27.1907 3.432 29.9427 2.792 33.1 2.792C35.4467 2.792 37.6227 3.19733 39.628 4.008C41.676 4.81867 43.4467 6.056 44.94 7.72C46.476 9.34133 47.6707 11.4107 48.524 13.928C49.3773 16.4453 49.804 19.4107 49.804 22.824ZM33.292 10.536C31.4147 10.536 29.8787 11.176 28.684 12.456C27.4893 13.736 26.892 15.7627 26.892 18.536C26.892 20.7547 27.404 22.504 28.428 23.784C29.452 25.064 31.0093 25.704 33.1 25.704C34.5507 25.704 35.788 25.384 36.812 24.744C37.8787 24.104 38.7107 23.3147 39.308 22.376C39.9053 21.3947 40.204 20.392 40.204 19.368C40.204 18.3013 40.0547 17.256 39.756 16.232C39.4573 15.1653 39.0093 14.2053 38.412 13.352C37.8573 12.4987 37.1533 11.816 36.3 11.304C35.4467 10.792 34.444 10.536 33.292 10.536ZM71.517 13.416C74.7597 13.416 77.533 14.0347 79.837 15.272C82.1837 16.5093 83.997 18.3013 85.277 20.648C86.557 22.9947 87.197 25.8747 87.197 29.288V33.896H64.669C64.7543 36.584 65.5437 38.696 67.037 40.232C68.573 41.768 70.685 42.536 73.373 42.536C75.6343 42.536 77.6823 42.3227 79.517 41.896C81.3517 41.4267 83.2503 40.7227 85.213 39.784V47.144C83.5063 47.9973 81.693 48.616 79.773 49C77.8957 49.4267 75.613 49.64 72.925 49.64C69.4263 49.64 66.333 49 63.645 47.72C60.957 46.3973 58.845 44.4133 57.309 41.768C55.773 39.1227 55.005 35.7947 55.005 31.784C55.005 27.688 55.6877 24.296 57.053 21.608C58.461 18.8773 60.4023 16.8293 62.877 15.464C65.3517 14.0987 68.2317 13.416 71.517 13.416ZM71.581 20.2C69.7463 20.2 68.2103 20.7973 66.973 21.992C65.7783 23.1867 65.0743 25.0427 64.861 27.56H78.237C78.237 26.152 77.981 24.8933 77.469 23.784C76.9997 22.6747 76.2743 21.8 75.293 21.16C74.3117 20.52 73.0743 20.2 71.581 20.2ZM114.77 13.416C118.524 13.416 121.532 14.44 123.794 16.488C126.055 18.4933 127.186 21.736 127.186 26.216V49H117.65V28.584C117.65 26.0667 117.202 24.1893 116.306 22.952C115.41 21.672 113.98 21.032 112.018 21.032C109.116 21.032 107.132 22.0347 106.066 24.04C104.999 26.0027 104.466 28.84 104.466 32.552V49H94.9295V14.056H102.226L103.506 18.536H104.018C104.786 17.3413 105.724 16.3813 106.833 15.656C107.943 14.888 109.18 14.3333 110.546 13.992C111.911 13.608 113.319 13.416 114.77 13.416ZM148.064 49.64C144.181 49.64 141.003 48.1253 138.528 45.096C136.096 42.024 134.88 37.5227 134.88 31.592C134.88 25.6187 136.117 21.096 138.592 18.024C141.067 14.952 144.309 13.416 148.32 13.416C149.984 13.416 151.456 13.6507 152.736 14.12C154.016 14.5467 155.104 15.144 156 15.912C156.939 16.68 157.728 17.5547 158.368 18.536H158.688C158.56 17.8533 158.411 16.872 158.24 15.592C158.069 14.2693 157.984 12.9253 157.984 11.56V0.359997H167.52V49H160.224L158.368 44.456H157.984C157.387 45.3947 156.619 46.2693 155.68 47.08C154.784 47.848 153.717 48.4667 152.48 48.936C151.243 49.4053 149.771 49.64 148.064 49.64ZM151.392 42.024C154.037 42.024 155.893 41.256 156.96 39.72C158.027 38.1413 158.581 35.7947 158.624 32.68V31.656C158.624 28.2427 158.091 25.64 157.024 23.848C156 22.056 154.08 21.16 151.264 21.16C149.173 21.16 147.531 22.0773 146.336 23.912C145.141 25.704 144.544 28.3067 144.544 31.72C144.544 35.1333 145.141 37.7147 146.336 39.464C147.531 41.1707 149.216 42.024 151.392 42.024ZM191.892 13.416C195.135 13.416 197.908 14.0347 200.212 15.272C202.559 16.5093 204.372 18.3013 205.652 20.648C206.932 22.9947 207.572 25.8747 207.572 29.288V33.896H185.044C185.129 36.584 185.919 38.696 187.412 40.232C188.948 41.768 191.06 42.536 193.748 42.536C196.009 42.536 198.057 42.3227 199.892 41.896C201.727 41.4267 203.625 40.7227 205.588 39.784V47.144C203.881 47.9973 202.068 48.616 200.148 49C198.271 49.4267 195.988 49.64 193.3 49.64C189.801 49.64 186.708 49 184.02 47.72C181.332 46.3973 179.22 44.4133 177.684 41.768C176.148 39.1227 175.38 35.7947 175.38 31.784C175.38 27.688 176.063 24.296 177.428 21.608C178.836 18.8773 180.777 16.8293 183.252 15.464C185.727 14.0987 188.607 13.416 191.892 13.416ZM191.956 20.2C190.121 20.2 188.585 20.7973 187.348 21.992C186.153 23.1867 185.449 25.0427 185.236 27.56H198.612C198.612 26.152 198.356 24.8933 197.844 23.784C197.375 22.6747 196.649 21.8 195.668 21.16C194.687 20.52 193.449 20.2 191.956 20.2ZM234.825 13.416C235.294 13.416 235.849 13.4373 236.489 13.48C237.129 13.5227 237.641 13.5867 238.025 13.672L237.321 22.632C237.022 22.5467 236.574 22.4827 235.977 22.44C235.422 22.3547 234.931 22.312 234.505 22.312C233.267 22.312 232.073 22.4827 230.921 22.824C229.769 23.1227 228.723 23.6133 227.785 24.296C226.889 24.9787 226.163 25.896 225.609 27.048C225.097 28.1573 224.841 29.544 224.841 31.208V49H215.305V14.056H222.537L223.945 19.944H224.393C225.075 18.7493 225.929 17.6613 226.953 16.68C227.977 15.6987 229.15 14.9093 230.473 14.312C231.838 13.7147 233.289 13.416 234.825 13.416Z" fill="white"/>
</svg>
